<?xml version="1.0" standalone="no"?>
<!DOCTYPE svg PUBLIC "-//W3C//DTD SVG 20010904//EN"
 "http://www.w3.org/TR/2001/REC-SVG-20010904/DTD/svg10.dtd">
<svg version="1.0" xmlns="http://www.w3.org/2000/svg"
 width="512.000000pt" height="512.000000pt" viewBox="0 0 512.000000 512.000000"
 preserveAspectRatio="xMidYMid meet">

<g transform="translate(0.000000,512.000000) scale(0.100000,-0.100000)"
stroke="none">
<path id="check-svg-check" d="M4310 4565 c-348 -235 -699 -534 -1115 -950 -313 -313 -601 -635
-869 -973 -35 -44 -63 -71 -71 -68 -8 3 -209 141 -447 308 -375 262 -438 302
-470 302 -33 1 -49 -12 -185 -140 -156 -149 -190 -193 -180 -236 4 -14 91
-142 194 -284 402 -557 778 -1104 957 -1391 48 -78 95 -148 103 -155 25 -21
99 -16 121 7 10 11 76 117 147 235 424 713 970 1521 1405 2079 320 412 527
650 837 959 136 136 246 254 249 268 4 13 1 38 -6 55 -24 58 -30 59 -307 59
l-253 0 -110 -75z"/>
<path id="check-svg-circle" d="M1999 4075 c-657 -107 -1193 -555 -1408 -1177 -256 -743 9 -1561 654
-2023 108 -78 336 -193 460 -234 585 -190 1222 -71 1685 314 377 314 598 740
641 1234 13 145 2 349 -26 466 -20 88 -74 123 -141 91 -56 -26 -59 -45 -39
-212 40 -332 -11 -635 -155 -920 -81 -160 -157 -263 -299 -405 -182 -181 -358
-292 -590 -373 -188 -66 -280 -80 -511 -81 -178 0 -219 3 -314 23 -306 66
-572 207 -789 420 -240 235 -391 519 -454 857 -24 130 -24 407 1 540 80 430
326 804 688 1042 386 254 860 326 1303 198 107 -31 135 -31 168 -1 37 35 44
72 21 115 -17 31 -29 39 -99 63 -165 55 -263 70 -495 74 -152 2 -240 -1 -301
-11z"/>
</g>
</svg>
