<?xml version="1.0" standalone="no"?>
<!DOCTYPE svg PUBLIC "-//W3C//DTD SVG 20010904//EN"
 "http://www.w3.org/TR/2001/REC-SVG-20010904/DTD/svg10.dtd">
<svg version="1.0" xmlns="http://www.w3.org/2000/svg"
 width="512.000000pt" height="512.000000pt" viewBox="0 0 512.000000 512.000000"
 preserveAspectRatio="xMidYMid meet">

<g transform="translate(0.000000,512.000000) scale(0.100000,-0.100000)"
stroke="none">
<path d="M2273 4964 c-597 -72 -1160 -373 -1551 -829 -491 -572 -689 -1360
-526 -2094 82 -372 271 -754 517 -1046 453 -538 1139 -855 1847 -855 546 0
1091 192 1520 537 485 388 812 983 885 1609 92 790 -222 1590 -830 2112 -291
250 -677 442 -1056 526 -246 55 -559 70 -806 40z m525 -134 c776 -83 1454
-554 1805 -1256 172 -345 246 -690 234 -1094 -10 -342 -78 -612 -231 -925
-116 -235 -229 -396 -406 -579 -352 -363 -764 -579 -1285 -672 -143 -26 -567
-26 -710 0 -242 43 -431 104 -640 205 -234 113 -407 234 -594 416 -354 344
-570 753 -662 1255 -26 139 -36 455 -20 611 93 897 706 1658 1561 1937 159 53
298 82 495 105 69 9 363 6 453 -3z"/>
</g>
</svg>
